# xmcd
# Copyright (C) 1995-1998 Ti Kan
#
# Track frame offsets:
#       150
#       18004
#       38824
#       58259
#       81569
#       102072
#       122974
#       148423
#       169010
#       193165
#       215274
#       239564
#
# Disc length: 3480 seconds
#
# Revision: 0
# Processed by: cddbd v1.5.2PL0 Copyright (c) Steve Scherf et al.
# Submitted via: CD-Import v1.0
#
DISCID=b00d960c
DTITLE=Zwicker - Songs Of Lucid Dreamers
DYEAR=2009
DGENRE=
TTITLE0=Who You Are
TTITLE1=Wake Up
TTITLE2=Oddity
TTITLE3=Dragon Fly
TTITLE4=Sleepwalking
TTITLE5=Ping Pong Muses
TTITLE6=Sui's Knee
TTITLE7=Strangeways
TTITLE8=Traumdeuter
TTITLE9=Submarine Kabelgau
TTITLE10=Prism
TTITLE11=Make It Happen
EXTD=
EXTT0=
EXTT1=
EXTT2=
EXTT3=
EXTT4=
EXTT5=
EXTT6=
EXTT7=
EXTT8=
EXTT9=
EXTT10=
EXTT11=
PLAYORDER=
